<svg xmlns="http://www.w3.org/2000/svg" xmlns:svg="http://www.w3.org/2000/svg" id="svg2479" width="200" height="80" version="1.0"><metadata id="metadata2484"/><g id="layer1"><g id="g3441" transform="matrix(0.8435773,0,0,0.8435773,2839.9914,3930.1403)"><path id="path3443" d="M -3317.0063,-4652.377 L -3350.1428,-4616.7161 L -3314.4819,-4583.5796 L -3293.8275,-4605.8084 L -3304.7922,-4605.8084 L -3304.7922,-4641.0272 L -3317.0063,-4652.377 z" style="fill:#729fcf;fill-opacity:1;fill-rule:nonzero;stroke:#2e3436;stroke-width:2;stroke-linecap:round;stroke-linejoin:round;stroke-miterlimit:4;stroke-dasharray:none;stroke-dashoffset:0;stroke-opacity:1"/><path id="path3445" d="M -3308.9994,-4589.4784 L -3297.2155,-4589.1982 C -3297.8529,-4578.906 -3306.4106,-4570.7468 -3316.8625,-4570.7468 C -3327.7286,-4570.7468 -3336.5474,-4579.5657 -3336.5474,-4590.4318 C -3336.5474,-4601.298 -3327.7286,-4610.1168 -3316.8625,-4610.1168 C -3313.2621,-4610.1168 -3310.1971,-4609.3007 -3307.0735,-4607.5104" style="fill:none;fill-opacity:1;fill-rule:nonzero;stroke:#2e3436;stroke-width:3.23588896;stroke-linecap:round;stroke-linejoin:round;stroke-miterlimit:4;stroke-dashoffset:0;stroke-opacity:1"/><path id="path3447" d="M -3333.3791,-4601.139 C -3335.3825,-4598.0564 -3336.5482,-4594.3789 -3336.5482,-4590.4311 C -3336.5482,-4579.565 -3327.7297,-4570.7465 -3316.8636,-4570.7466 C -3306.4118,-4570.7466 -3297.8536,-4578.9067 -3297.2162,-4589.1988 L -3308.9995,-4589.4784 L -3314.4819,-4583.5796 L -3333.3791,-4601.139 z" style="fill:#8ae234;fill-opacity:1;fill-rule:nonzero;stroke:#2e3436;stroke-width:2;stroke-linecap:round;stroke-linejoin:round;stroke-miterlimit:4;stroke-dashoffset:0;stroke-opacity:1"/><path id="path3449" d="M -3299.3156,-4635.9385 L -3299.3156,-4611.5874 L -3288.4564,-4611.5874 L -3281.3454,-4619.2405 L -3299.3156,-4635.9385 z" style="fill:#729fcf;fill-opacity:1;fill-rule:nonzero;stroke:#2e3436;stroke-width:2;stroke-linecap:round;stroke-linejoin:round;stroke-miterlimit:4;stroke-dasharray:none;stroke-dashoffset:0;stroke-opacity:1"/><path style="fill:none;fill-opacity:1;fill-rule:nonzero;stroke:#2e3436;stroke-width:3.23588896;stroke-linecap:round;stroke-linejoin:round;stroke-miterlimit:4;stroke-dashoffset:0;stroke-opacity:1" id="path3451" d="M -3308.9994,-4589.4784 L -3297.2155,-4589.1982 C -3297.8529,-4578.906 -3306.4106,-4570.7468 -3316.8625,-4570.7468 C -3327.7286,-4570.7468 -3336.5474,-4579.5657 -3336.5474,-4590.4318 C -3336.5474,-4601.298 -3327.7286,-4610.1168 -3316.8625,-4610.1168 C -3313.2621,-4610.1168 -3310.1971,-4609.3007 -3307.0735,-4607.5104"/><path id="path3453" d="M -3333.75,-4634.3438 L -3349.5938,-4617.3125 C -3347.154,-4616.2282 -3344.4655,-4615.625 -3341.625,-4615.625 C -3331.1731,-4615.625 -3322.6063,-4623.7701 -3321.9688,-4634.0625 L -3333.75,-4634.3438 z" style="opacity:.75;fill:#4e9a06;fill-opacity:1;fill-rule:nonzero;stroke:#2e3436;stroke-width:2;stroke-linecap:round;stroke-linejoin:round;stroke-miterlimit:4;stroke-dasharray:none;stroke-dashoffset:0;stroke-opacity:1"/><path id="path3455" d="M -3333.7534,-4634.3542 L -3321.9696,-4634.074 C -3322.607,-4623.7818 -3331.1646,-4615.6226 -3341.6165,-4615.6226 C -3352.4826,-4615.6226 -3361.3015,-4624.4415 -3361.3015,-4635.3076 C -3361.3015,-4646.1737 -3352.4826,-4654.9926 -3341.6165,-4654.9926 C -3338.0162,-4654.9926 -3334.9512,-4654.1765 -3331.8276,-4652.3861" style="fill:none;fill-opacity:1;fill-rule:nonzero;stroke:#2e3436;stroke-width:3.23588896;stroke-linecap:round;stroke-linejoin:round;stroke-miterlimit:4;stroke-dashoffset:0;stroke-opacity:1"/></g><text style="font-size:21.74307632px;font-style:normal;font-variant:normal;font-weight:700;font-stretch:normal;fill:#2e3436;fill-opacity:1;stroke:none;stroke-width:1px;stroke-linecap:butt;stroke-linejoin:miter;stroke-opacity:1;font-family:Candara;-inkscape-font-specification:Candara Bold" id="text3516" x="77.288" y="18.602" xml:space="preserve"><tspan id="tspan3518" x="77.288" y="18.602">Generic</tspan><tspan id="tspan3520" x="77.288" y="45.78">Geometry</tspan><tspan id="tspan3522" x="77.288" y="72.959">Library</tspan></text></g></svg>